# xmcd
#
# Track frame offsets:
#	150
#	23082
#	43134
#	58779
#	86953
#	110281
#	136572
#	150830
#	172255
#	199266
#
# Disc length: 3035 seconds
#
# Revision: 0
# Processed by: cddbd v1.5.2PL0 Copyright (c) Steve Scherf et al.
# Submitted via: EasyCDDAExtractor 16.0.6.1
#
DISCID=800bd90a
DTITLE=Συλλογικός δίσκος - Ο ξιπόλητος πρίγκιπας-Χαΐνηδες 2
DYEAR=2000
DGENRE=Έντεχνη
TTITLE0=Ζαχαριουδάκης Δημήτρης - Οι δυό προφήτες
TTITLE1=Κώτη Μαρία - Ο δρόμος του μερακιού
TTITLE2=Ψαραντώνης - Η τίγρη
TTITLE3=Αποστολάκης Δημήτρης - Θέλω να πάρω τη φυλή μου και να φύγω 
TTITLE4=Κώτη Μαρία - Το μονοπάτι της ζωής
TTITLE5=Σταυρακάκης Μιχάλης - Του ανέμου η κόρη
TTITLE6=Αποστολάκης Δημήτρης - Η κατάσταση των πραγμάτων
TTITLE7=Σταυρακάκης Μιχάλης - Του παραπονεμάτου
TTITLE8=Κώτη Μαρία - Ο ξένος
TTITLE9=Σταυρακάκης Μιχάλης - Νανούρισμα
EXTD=YEAR: 2000\n
EXTT0=
EXTT1=
EXTT2=
EXTT3=
EXTT4=
EXTT5=
EXTT6=
EXTT7=
EXTT8=
EXTT9=
PLAYORDER=
